DesignModeler IGES Output Version 5.3                                   S      1
1H,,1H;,27Hgeometry_flow_over_cylinder,31Hgeometry_flow_over_cylinder.igG      1
s,27HBy Siemens PLM Incorporated,26HXPlus GENERIC/IGES 21.0.47,32,38, 6,G      2
308,15,27Hgeometry_flow_over_cylinder,1.000,6,1HM,1,1.000,15H20250620.12G      3
4751,1.0e-08,0.00,4HUser,1H ,11,0,15H20250620.124751;                   G      4
     116       1       0       1       0       0       0       000010001D      1
     116       1       0       1       0       0       0               0D      2
     123       2       0       1       0       0       0       000010201D      3
     123       1       0       1       0       0       0               0D      4
     123       3       0       1       0       0       0       000010201D      5
     123       1       0       1       0       0       0               0D      6
     190       4       0       1       0       0       0       000010001D      7
     190       1       0       1       1       0       0               0D      8
     110       5       0       1       0       0       0       000010001D      9
     110       1       0       1       0       0       0               0D     10
     502       6       0       1       0       0       0       000010001D     11
     502       1       0       2       1       0       0               0D     12
     110       8       0       1       0       0       0       000010001D     13
     110       1       0       1       0       0       0               0D     14
     110       9       0       1       0       0       0       000010001D     15
     110       1       0       1       0       0       0               0D     16
     110      10       0       1       0       0       0       000010001D     17
     110       1       0       1       0       0       0               0D     18
     124      11       0       1       0       0       0       000010001D     19
     124       1       0       1       0       0       0               0D     20
     100      12       0       1       0       0      19       000010001D     21
     100       1       0       1       0       0       0               0D     22
     110      13       0       1       0       0       0       000010001D     23
     110       1       0       1       0       0       0               0D     24
     110      14       0       1       0       0       0       000010001D     25
     110       1       0       1       0       0       0               0D     26
     110      15       0       1       0       0       0       000010001D     27
     110       1       0       1       0       0       0               0D     28
     110      16       0       1       0       0       0       000010001D     29
     110       1       0       1       0       0       0               0D     30
     124      17       0       1       0       0       0       000010001D     31
     124       1       0       1       0       0       0               0D     32
     100      18       0       1       0       0      31       000010001D     33
     100       1       0       1       0       0       0               0D     34
     110      19       0       1       0       0       0       000010001D     35
     110       1       0       1       0       0       0               0D     36
     110      20       0       1       0       0       0       000010001D     37
     110       1       0       1       0       0       0               0D     38
     110      21       0       1       0       0       0       000010001D     39
     110       1       0       1       0       0       0               0D     40
     110      22       0       1       0       0       0       000010001D     41
     110       1       0       1       0       0       0               0D     42
     504      23       0       1       0       0       0       000010001D     43
     504       1       0       4       1       0       0               0D     44
     508      27       0       1       0       0       0       000010001D     45
     508       1       0       1       1       0       0               0D     46
     510      28       0       1       0       0       0       000010001D     47
     510       1       0       1       1       0       0               0D     48
     116      29       0       1       0       0       0       000010001D     49
     116       1       0       1       0       0       0               0D     50
     123      30       0       1       0       0       0       000010201D     51
     123       1       0       1       0       0       0               0D     52
     123      31       0       1       0       0       0       000010201D     53
     123       1       0       1       0       0       0               0D     54
     190      32       0       1       0       0       0       000010001D     55
     190       1       0       1       1       0       0               0D     56
     508      33       0       1       0       0       0       000010001D     57
     508       1       0       1       1       0       0               0D     58
     510      34       0       1       0       0       0       000010001D     59
     510       1       0       1       1       0       0               0D     60
     116      35       0       1       0       0       0       000010001D     61
     116       1       0       1       0       0       0               0D     62
     123      36       0       1       0       0       0       000010201D     63
     123       1       0       1       0       0       0               0D     64
     123      37       0       1       0       0       0       000010201D     65
     123       1       0       1       0       0       0               0D     66
     190      38       0       1       0       0       0       000010001D     67
     190       1       0       1       1       0       0               0D     68
     508      39       0       1       0       0       0       000010001D     69
     508       1       0       1       1       0       0               0D     70
     510      40       0       1       0       0       0       000010001D     71
     510       1       0       1       1       0       0               0D     72
     116      41       0       1       0       0       0       000010001D     73
     116       1       0       1       0       0       0               0D     74
     123      42       0       1       0       0       0       000010201D     75
     123       1       0       1       0       0       0               0D     76
     123      43       0       1       0       0       0       000010201D     77
     123       1       0       1       0       0       0               0D     78
     190      44       0       1       0       0       0       000010001D     79
     190       1       0       1       1       0       0               0D     80
     508      45       0       1       0       0       0       000010001D     81
     508       1       0       1       1       0       0               0D     82
     510      46       0       1       0       0       0       000010001D     83
     510       1       0       1       1       0       0               0D     84
     116      47       0       1       0       0       0       000010001D     85
     116       1       0       1       0       0       0               0D     86
     123      48       0       1       0       0       0       000010201D     87
     123       1       0       1       0       0       0               0D     88
     123      49       0       1       0       0       0       000010201D     89
     123       1       0       1       0       0       0               0D     90
     192      50       0       1       0       0       0       000010001D     91
     192       1       0       1       1       0       0               0D     92
     508      51       0       1       0       0       0       000010001D     93
     508       1       0       1       1       0       0               0D     94
     508      52       0       1       0       0       0       000010001D     95
     508       1       0       1       1       0       0               0D     96
     510      53       0       1       0       0       0       000010001D     97
     510       1       0       1       1       0       0               0D     98
     116      54       0       1       0       0       0       000010001D     99
     116       1       0       1       0       0       0               0D    100
     123      55       0       1       0       0       0       000010201D    101
     123       1       0       1       0       0       0               0D    102
     123      56       0       1       0       0       0       000010201D    103
     123       1       0       1       0       0       0               0D    104
     190      57       0       1       0       0       0       000010001D    105
     190       1       0       1       1       0       0               0D    106
     508      58       0       1       0       0       0       000010001D    107
     508       1       0       1       1       0       0               0D    108
     508      59       0       1       0       0       0       000010001D    109
     508       1       0       1       1       0       0               0D    110
     510      60       0       1       0       0       0       000010001D    111
     510       1       0       1       1       0       0               0D    112
     116      61       0       1       0       0       0       000010001D    113
     116       1       0       1       0       0       0               0D    114
     123      62       0       1       0       0       0       000010201D    115
     123       1       0       1       0       0       0               0D    116
     123      63       0       1       0       0       0       000010201D    117
     123       1       0       1       0       0       0               0D    118
     190      64       0       1       0       0       0       000010001D    119
     190       1       0       1       1       0       0               0D    120
     508      65       0       1       0       0       0       000010001D    121
     508       1       0       1       1       0       0               0D    122
     508      66       0       1       0       0       0       000010001D    123
     508       1       0       1       1       0       0               0D    124
     510      67       0       1       0       0       0       000010001D    125
     510       1       0       1       1       0       0               0D    126
     514      68       0       1       0       0       0       000010001D    127
     514       1       0       1       1       0       0               0D    128
     186      69       0       1       0       0       0       000000001D    129
     186       1       0       1       0       0       0               0D    130
116,0.,0.1,0.01;                                                       1P      1
123,1.,-0.,0.;                                                         3P      2
123,0.,1.,0.;                                                          5P      3
190,1,3,5;                                                             7P      4
110,0.,0.,0.01,0.,0.,0.;                                               9P      5
502,10,0.,0.1,0.,0.,0.,0.01,0.,0.,0.,1.,0.1,0.,0.,0.1,0.01,1.,        11P      6
0.1,0.01,0.15,0.05,0.01,0.15,0.05,0.,1.,0.,0.01,1.,0.,0.;             11P      7
110,1.,0.,0.01,1.,0.,0.;                                              13P      8
110,1.,0.1,0.01,1.,0.1,0.;                                            15P      9
110,0.,0.1,0.01,0.,0.1,0.;                                            17P     10
124,1.,0.,0.,0.125,0.,1.,0.,0.05,0.,0.,1.,0.01;                       19P     11
100,0.,0.,0.,0.025,0.,0.025,-0.;                                      21P     12
110,1.,0.1,0.01,0.,0.1,0.01;                                          23P     13
110,1.,0.,0.01,1.,0.1,0.01;                                           25P     14
110,0.,0.,0.01,1.,0.,0.01;                                            27P     15
110,0.,0.1,0.01,0.,0.,0.01;                                           29P     16
124,1.,0.,0.,0.125,0.,1.,0.,0.05,0.,0.,1.,0.;                         31P     17
100,0.,0.,0.,0.025,0.,0.025,-0.;                                      33P     18
110,1.,0.1,0.,0.,0.1,0.;                                              35P     19
110,1.,0.,0.,1.,0.1,0.;                                               37P     20
110,0.,0.,0.,1.,0.,0.;                                                39P     21
110,0.,0.1,0.,0.,0.,0.;                                               41P     22
504,14,9,11,2,11,3,13,11,9,11,10,15,11,6,11,4,17,11,5,11,1,21,        43P     23
11,7,11,7,23,11,6,11,5,25,11,9,11,6,27,11,2,11,9,29,11,5,11,2,        43P     24
33,11,8,11,8,35,11,4,11,1,37,11,10,11,4,39,11,3,11,10,41,11,1,        43P     25
11,3;                                                                 43P     26
508,4,0,43,14,1,0,0,43,1,0,0,0,43,9,0,0,0,43,4,1,0;                   45P     27
510,7,1,1,45;                                                         47P     28
116,0.,0.,0.01;                                                       49P     29
123,0.,1.,0.;                                                         51P     30
123,0.,0.,1.;                                                         53P     31
190,49,51,53;                                                         55P     32
508,4,0,43,13,1,0,0,43,2,0,0,0,43,8,0,0,0,43,1,1,0;                   57P     33
510,55,1,1,57;                                                        59P     34
116,1.,0.,0.01;                                                       61P     35
123,-1.,0.,0.;                                                        63P     36
123,0.,0.,1.;                                                         65P     37
190,61,63,65;                                                         67P     38
508,4,0,43,12,1,0,0,43,3,0,0,0,43,7,0,0,0,43,2,1,0;                   69P     39
510,67,1,1,69;                                                        71P     40
116,1.,0.1,0.01;                                                      73P     41
123,0.,-1.,0.;                                                        75P     42
123,1.,0.,0.;                                                         77P     43
190,73,75,77;                                                         79P     44
508,4,0,43,11,1,0,0,43,4,0,0,0,43,6,0,0,0,43,3,1,0;                   81P     45
510,79,1,1,81;                                                        83P     46
116,0.125,0.05,0.01;                                                  85P     47
123,0.,0.,1.;                                                         87P     48
123,-1.,0.,0.;                                                        89P     49
192,85,87,0.025,89;                                                   91P     50
508,1,0,43,10,0,0;                                                    93P     51
508,1,0,43,5,1,0;                                                     95P     52
510,91,2,1,93,95;                                                     97P     53
116,0.,0.,0.;                                                         99P     54
123,0.,0.,1.;                                                        101P     55
123,1.,0.,0.;                                                        103P     56
190,99,101,103;                                                      105P     57
508,4,0,43,14,0,0,0,43,11,0,0,0,43,12,0,0,0,43,13,0,0;               107P     58
508,1,0,43,10,1,0;                                                   109P     59
510,105,2,1,107,109;                                                 111P     60
116,0.,0.,0.01;                                                      113P     61
123,0.,0.,1.;                                                        115P     62
123,1.,0.,0.;                                                        117P     63
190,113,115,117;                                                     119P     64
508,4,0,43,9,1,0,0,43,8,1,0,0,43,7,1,0,0,43,6,1,0;                   121P     65
508,1,0,43,5,0,0;                                                    123P     66
510,119,2,1,121,123;                                                 125P     67
514,7,47,0,59,0,71,0,83,0,97,0,111,0,125,1;                          127P     68
186,127,1,0;                                                         129P     69
S      1G      4D    130P     69                                        T      1
